<svg xmlns="http://www.w3.org/2000/svg" width="80" height="66" viewBox="0 0 80 66">
  <g id="noun_Rupee_Transfer_445222" data-name="noun_Rupee Transfer_445222" transform="translate(-10 -17)">
    <g id="Group_1" data-name="Group 1" transform="translate(0 -952.362)">
      <path id="Path_1" data-name="Path 1" d="M72,17V33H68.313A24.987,24.987,0,0,1,74.5,45H90ZM50,27A23,23,0,1,0,73,50,23,23,0,0,0,50,27ZM16,33V45h9.5a24.987,24.987,0,0,1,6.188-12Zm23.813,4H60a2,2,0,1,1,0,4H56.594a9.186,9.186,0,0,1,1.188,3H60a2,2,0,1,1,0,4H57.781c-.864,4.022-4.24,7-8,7H44.844l8.563,8.563a2,2,0,1,1-2.812,2.844l-12-12a2.008,2.008,0,0,1,1.188-3.437c3.277.062,6.677.031,10,.031,1.146,0,2.913-1.24,3.75-3H40a2,2,0,0,1-.187-4H53.531c-.837-1.76-2.6-3-3.75-3H40a2,2,0,0,1-.187-4ZM10,55,28,83V67h3.688A24.987,24.987,0,0,1,25.5,55Zm64.5,0a24.987,24.987,0,0,1-6.187,12H84V55Z" transform="translate(0 952.362)" fill="#00b5c9"/>
    </g>
  </g>
</svg>
